<?xml version="1.0" encoding="UTF-8"?><svg id="Layer_1" xmlns="http://www.w3.org/2000/svg" viewBox="0 0 94.932 95.017"><defs><style>.cls-1{fill:#84a7ff;}.cls-2{fill:#173647;}</style></defs><g><rect class="cls-1" x="2.497" y="2.497" width="89.974" height="89.987"/><path class="cls-2" d="M89.974,4.994V89.987H4.994V4.994H89.974m4.994-4.994H0V94.98H94.968V0h0Z"/></g><g><circle class="cls-2" cx="48.525" cy="57.099" r="3.575"/><path class="cls-2" d="M46.629,33.871h1.961c13.207,.018,22.529,8.701,23.658,20.548,1.296,13.59-8.779,25.845-23.217,25.729h0c-15.481,0-24.28-10.912-24.294-23.49v-12.996h9.899l-.027-23.482-5.234,2.619v16.001h-4.485V19.52l10.597-6.135,3.577,2.087,.029,28.188h8.524c10.214-.074,14.297,6.637,14.388,13.554,.123,9.331-9.822,16.206-19.766,11.54-4.379-2.054-7.735-7.194-7.735-12.031v-.068s-.012-8.404-.012-8.404h-5.434v7.571c-.246,9.126,6.59,18.692,18.131,19.658,11.581,.97,20.582-7.294,20.582-18.635,0-10.713-7.49-18.17-18.203-18.17h-2.94m-7.486,9.576v8.402c-.001,5.305,4.421,9.398,9.726,9.4,5.305,.001,8.84-4.42,8.717-8.717,.001-5.305-3.985-9.084-9.289-9.085h-9.153Z"/></g></svg>